# Blender v2.69 (sub 0) OBJ File: ''
# www.blender.org
mtllib pillar2.mtl
o Cube
v 1.000000 0.681041 -1.000000
v 1.000000 0.681041 1.000000
v -1.000000 0.681041 1.000000
v -1.000000 0.681041 -1.000000
v 0.758472 5.717822 -0.758471
v 0.758471 5.717822 0.758472
v -0.758472 5.717822 0.758471
v -0.758472 5.717822 -0.758472
v 0.425291 1.837798 -0.425291
v 0.425291 1.837798 0.425291
v -0.425291 1.837798 0.425291
v -0.425291 1.837798 -0.425291
v 0.405285 5.140764 -0.405284
v 0.405284 5.140764 0.405285
v -0.405285 5.140764 0.405284
v -0.405284 5.140764 -0.405284
vn 0.000000 -1.000000 0.000000
vn 0.000000 1.000000 0.000000
vn 0.852926 -0.522032 0.000000
vn -0.000000 -0.522032 0.852926
vn -0.852926 -0.522032 0.000000
vn 0.000000 0.444940 -0.895561
vn 0.895561 0.444939 0.000000
vn -0.000000 0.444939 0.895561
vn -0.895561 0.444939 -0.000000
vn 0.000000 0.006057 -0.999982
vn 0.999982 0.006057 0.000000
vn -0.000000 0.006057 0.999982
vn -0.999982 0.006057 -0.000000
vn 0.000000 -0.522031 -0.852926
vn -0.000000 -0.522031 0.852926
vn 0.895561 0.444940 0.000000
vn 0.999982 0.006057 0.000001
vn -0.000001 0.006057 0.999982
vn 0.000000 -0.522033 -0.852926
usemtl Material
s off
f 1//1 2//1 4//1
f 5//2 8//2 6//2
f 13//3 5//3 14//3
f 14//4 6//4 15//4
f 15//5 7//5 16//5
f 9//6 1//6 12//6
f 1//7 9//7 2//7
f 2//8 10//8 3//8
f 3//9 11//9 4//9
f 13//10 9//10 16//10
f 9//11 13//11 10//11
f 10//12 14//12 11//12
f 11//13 15//13 12//13
f 5//14 13//14 8//14
f 2//1 3//1 4//1
f 8//2 7//2 6//2
f 5//3 6//3 14//3
f 6//15 7//15 15//15
f 7//5 8//5 16//5
f 1//6 4//6 12//6
f 9//16 10//16 2//16
f 10//8 11//8 3//8
f 11//9 12//9 4//9
f 9//10 12//10 16//10
f 13//17 14//17 10//17
f 14//18 15//18 11//18
f 15//13 16//13 12//13
f 13//19 16//19 8//19
